# xmcd
#
# Track frame offsets: 
#        150
#        9010
#        18855
#        28457
#        37872
#        48980
#        58296
#        69532
#        80834
#        89358
#        100233
#        113554
#        124871
#        135555
#        147616
#        158414
#        168918
#        179450
#        190860
#        200320
#        213239
#        222858
#        236411
#        248446
#        260492
#
# Disc length: 3611 seconds
#
# Revision: 0
# Processed by: cddbd v1.5.2PL0 Copyright (c) Steve Scherf et al.
# Submitted via: ExactAudioCopyFreeDBPlugin 1.0
#
DISCID=530e1919
DTITLE=Waylon Jennings - Nashville Rebel - CD 01
DYEAR=2006
DGENRE=Country
TTITLE0=Jole Blon
TTITLE1=My Baby Walks All Over Me
TTITLE2=That's the Chance I'll Have to Take
TTITLE3=Stop the World (and Let Me Off)
TTITLE4=Anita, You're Dreaming
TTITLE5=Time to Bum Again
TTITLE6=(That's What You Get) For Lovin' Me
TTITLE7=Green River
TTITLE8=Nashville Rebel
TTITLE9=Mental Revenge
TTITLE10=Love of the Common People
TTITLE11=The Chokin' Kind
TTITLE12=Walk On Out of My Mind
TTITLE13=I Got You (With Anita Carter)
TTITLE14=Only Daddy That'll Walk the Line
TTITLE15=Yours, Love
TTITLE16=Just to Satisfy You
TTITLE17=Something's Wrong in California
TTITLE18=Brown Eyed Handsome Man
TTITLE19=Cedartown, Georgia
TTITLE20=I Ain't the One (With Jessi Colter)
TTITLE21=Singer of Sad Songs
TTITLE22=It's Sure Been Fun
TTITLE23=Six White Horses
TTITLE24=People in Dallas Got Hair
EXTD=
EXTT0=
EXTT1=
EXTT2=
EXTT3=
EXTT4=
EXTT5=
EXTT6=
EXTT7=
EXTT8=
EXTT9=
EXTT10=
EXTT11=
EXTT12=
EXTT13=
EXTT14=
EXTT15=
EXTT16=
EXTT17=
EXTT18=
EXTT19=
EXTT20=
EXTT21=
EXTT22=
EXTT23=
EXTT24=
PLAYORDER=
